<mxfile host="65bd71144e">
    <diagram id="WCrxtrEnFYtGyMYK871V" name="Page-1">
        <mxGraphModel dx="777" dy="529" grid="1" gridSize="10" guides="1" tooltips="1" connect="1" arrows="1" fold="1" page="1" pageScale="1" pageWidth="827" pageHeight="1169" math="0" shadow="0">
            <root>
                <mxCell id="0"/>
                <mxCell id="1" parent="0"/>
                <mxCell id="12" value="&lt;b style=&quot;font-size: 17px;&quot;&gt;books&lt;/b&gt;" style="rounded=1;arcSize=10;whiteSpace=wrap;html=1;align=center;fillColor=#b1ddf0;strokeColor=#10739e;fontColor=#000000;fontSize=17;" parent="1" vertex="1">
                    <mxGeometry x="60" y="230" width="140" height="80" as="geometry"/>
                </mxCell>
                <mxCell id="13" value="authors" style="rounded=1;arcSize=10;whiteSpace=wrap;html=1;align=center;fillColor=#b1ddf0;strokeColor=#10739e;fontColor=#000000;fontStyle=1;fontSize=17;" parent="1" vertex="1">
                    <mxGeometry x="510" y="225" width="140" height="70" as="geometry"/>
                </mxCell>
                <mxCell id="14" value="&lt;font color=&quot;#000000&quot;&gt;title&lt;/font&gt;" style="ellipse;whiteSpace=wrap;html=1;align=center;fillColor=#e6d0de;strokeColor=#996185;gradientColor=#d5739d;fontColor=#333333;" parent="1" vertex="1">
                    <mxGeometry x="20" y="130" width="100" height="40" as="geometry"/>
                </mxCell>
                <mxCell id="15" value="&lt;font color=&quot;#000000&quot;&gt;chapters&lt;/font&gt;" style="ellipse;whiteSpace=wrap;html=1;align=center;fillColor=#e6d0de;strokeColor=#996185;gradientColor=#d5739d;fontColor=#333333;" parent="1" vertex="1">
                    <mxGeometry x="130" y="120" width="100" height="40" as="geometry"/>
                </mxCell>
                <mxCell id="16" value="&lt;font color=&quot;#000000&quot;&gt;buyingDate&lt;/font&gt;" style="ellipse;whiteSpace=wrap;html=1;align=center;fillColor=#e6d0de;strokeColor=#996185;gradientColor=#d5739d;fontColor=#333333;" parent="1" vertex="1">
                    <mxGeometry x="170" y="80" width="100" height="40" as="geometry"/>
                </mxCell>
                <mxCell id="17" value="&lt;font color=&quot;#000000&quot;&gt;description&lt;/font&gt;" style="ellipse;whiteSpace=wrap;html=1;align=center;fillColor=#e6d0de;strokeColor=#996185;gradientColor=#d5739d;fontColor=#333333;" parent="1" vertex="1">
                    <mxGeometry x="10" y="180" width="100" height="40" as="geometry"/>
                </mxCell>
                <mxCell id="19" value="&lt;font color=&quot;#000000&quot;&gt;starReadingDate&lt;/font&gt;" style="ellipse;whiteSpace=wrap;html=1;align=center;fillColor=#e6d0de;strokeColor=#996185;gradientColor=#d5739d;fontColor=#333333;" parent="1" vertex="1">
                    <mxGeometry x="10" y="320" width="100" height="40" as="geometry"/>
                </mxCell>
                <mxCell id="20" value="&lt;font color=&quot;#000000&quot;&gt;endReadinDate&lt;/font&gt;" style="ellipse;whiteSpace=wrap;html=1;align=center;fillColor=#e6d0de;strokeColor=#996185;gradientColor=#d5739d;fontColor=#333333;" parent="1" vertex="1">
                    <mxGeometry x="110" y="340" width="100" height="40" as="geometry"/>
                </mxCell>
                <mxCell id="23" value="has" style="shape=rhombus;perimeter=rhombusPerimeter;whiteSpace=wrap;html=1;align=center;fontSize=17;gradientColor=#ffd966;fillColor=#fff2cc;strokeColor=#d6b656;fontColor=#1A1A1A;" parent="1" vertex="1">
                    <mxGeometry x="290" y="230" width="120" height="60" as="geometry"/>
                </mxCell>
                <mxCell id="24" value="&lt;font color=&quot;#000000&quot;&gt;authorName&lt;/font&gt;" style="ellipse;whiteSpace=wrap;html=1;align=center;fillColor=#e6d0de;strokeColor=#996185;gradientColor=#d5739d;fontColor=#333333;" parent="1" vertex="1">
                    <mxGeometry x="460" y="170" width="100" height="40" as="geometry"/>
                </mxCell>
                <mxCell id="25" value="&lt;font color=&quot;#000000&quot;&gt;bookId&lt;/font&gt;" style="ellipse;whiteSpace=wrap;html=1;align=center;fillColor=#e6d0de;strokeColor=#996185;gradientColor=#d5739d;fontColor=#333333;" parent="1" vertex="1">
                    <mxGeometry x="110" y="170" width="100" height="40" as="geometry"/>
                </mxCell>
                <mxCell id="26" value="&lt;font color=&quot;#000000&quot;&gt;authorId&lt;/font&gt;" style="ellipse;whiteSpace=wrap;html=1;align=center;fillColor=#e6d0de;strokeColor=#996185;gradientColor=#d5739d;fontColor=#333333;" parent="1" vertex="1">
                    <mxGeometry x="570" y="170" width="100" height="40" as="geometry"/>
                </mxCell>
                <mxCell id="27" value="&lt;font color=&quot;#000000&quot;&gt;categoryId&lt;br&gt;&lt;/font&gt;" style="ellipse;whiteSpace=wrap;html=1;align=center;fillColor=#e6d0de;strokeColor=#996185;gradientColor=#d5739d;fontColor=#333333;" parent="1" vertex="1">
                    <mxGeometry x="10" y="370" width="100" height="40" as="geometry"/>
                </mxCell>
                <mxCell id="28" value="&lt;font color=&quot;#000000&quot;&gt;publishDate&lt;/font&gt;" style="ellipse;whiteSpace=wrap;html=1;align=center;fillColor=#e6d0de;strokeColor=#996185;gradientColor=#d5739d;fontColor=#333333;" parent="1" vertex="1">
                    <mxGeometry x="100" y="390" width="100" height="40" as="geometry"/>
                </mxCell>
                <mxCell id="30" value="categories" style="rounded=1;arcSize=10;whiteSpace=wrap;html=1;align=center;fillColor=#b1ddf0;strokeColor=#10739e;fontColor=#000000;fontStyle=1;fontSize=17;" parent="1" vertex="1">
                    <mxGeometry x="420" y="470" width="140" height="70" as="geometry"/>
                </mxCell>
                <mxCell id="31" value="&lt;font color=&quot;#000000&quot;&gt;categoryId&lt;/font&gt;" style="ellipse;whiteSpace=wrap;html=1;align=center;fillColor=#e6d0de;strokeColor=#996185;gradientColor=#d5739d;fontColor=#333333;" parent="1" vertex="1">
                    <mxGeometry x="560" y="430" width="100" height="40" as="geometry"/>
                </mxCell>
                <mxCell id="32" value="&lt;font color=&quot;#000000&quot;&gt;categoryName&lt;/font&gt;" style="ellipse;whiteSpace=wrap;html=1;align=center;fillColor=#e6d0de;strokeColor=#996185;gradientColor=#d5739d;fontColor=#333333;" parent="1" vertex="1">
                    <mxGeometry x="450" y="420" width="100" height="40" as="geometry"/>
                </mxCell>
                <mxCell id="33" value="belongs" style="shape=rhombus;perimeter=rhombusPerimeter;whiteSpace=wrap;html=1;align=center;fontSize=17;gradientColor=#ffd966;fillColor=#fff2cc;strokeColor=#d6b656;fontColor=#1A1A1A;" parent="1" vertex="1">
                    <mxGeometry x="280" y="360" width="120" height="60" as="geometry"/>
                </mxCell>
                <mxCell id="34" value="" style="edgeStyle=entityRelationEdgeStyle;fontSize=12;html=1;endArrow=ERoneToMany;fontColor=#1A1A1A;entryX=1;entryY=0.5;entryDx=0;entryDy=0;exitX=0;exitY=0.5;exitDx=0;exitDy=0;" parent="1" source="33" target="12" edge="1">
                    <mxGeometry width="100" height="100" relative="1" as="geometry">
                        <mxPoint x="300" y="450" as="sourcePoint"/>
                        <mxPoint x="400" y="350" as="targetPoint"/>
                    </mxGeometry>
                </mxCell>
                <mxCell id="35" value="" style="edgeStyle=entityRelationEdgeStyle;fontSize=12;html=1;endArrow=ERoneToMany;fontColor=#1A1A1A;entryX=-0.015;entryY=0.41;entryDx=0;entryDy=0;entryPerimeter=0;exitX=1;exitY=0.5;exitDx=0;exitDy=0;" parent="1" source="33" target="30" edge="1">
                    <mxGeometry width="100" height="100" relative="1" as="geometry">
                        <mxPoint x="300" y="450" as="sourcePoint"/>
                        <mxPoint x="400" y="350" as="targetPoint"/>
                    </mxGeometry>
                </mxCell>
                <mxCell id="36" value="" style="fontSize=12;html=1;endArrow=ERzeroToMany;endFill=1;fontColor=#1A1A1A;entryX=1;entryY=0.25;entryDx=0;entryDy=0;exitX=0;exitY=0.5;exitDx=0;exitDy=0;" parent="1" source="23" target="12" edge="1">
                    <mxGeometry width="100" height="100" relative="1" as="geometry">
                        <mxPoint x="280" y="270" as="sourcePoint"/>
                        <mxPoint x="400" y="350" as="targetPoint"/>
                    </mxGeometry>
                </mxCell>
                <mxCell id="37" value="" style="fontSize=12;html=1;endArrow=ERoneToMany;fontColor=#1A1A1A;entryX=0;entryY=0.5;entryDx=0;entryDy=0;" parent="1" source="23" target="13" edge="1">
                    <mxGeometry width="100" height="100" relative="1" as="geometry">
                        <mxPoint x="180" y="620" as="sourcePoint"/>
                        <mxPoint x="280" y="520" as="targetPoint"/>
                    </mxGeometry>
                </mxCell>
                <mxCell id="53" value="&lt;font color=&quot;#000000&quot;&gt;price&lt;/font&gt;" style="ellipse;whiteSpace=wrap;html=1;align=center;fillColor=#e6d0de;strokeColor=#996185;gradientColor=#d5739d;fontColor=#333333;" parent="1" vertex="1">
                    <mxGeometry x="50" y="80" width="100" height="40" as="geometry"/>
                </mxCell>
                <mxCell id="54" value="Publishers" style="rounded=1;arcSize=10;whiteSpace=wrap;html=1;align=center;fillColor=#b1ddf0;strokeColor=#10739e;fontColor=#000000;fontStyle=1;fontSize=17;" vertex="1" parent="1">
                    <mxGeometry x="440" y="30" width="140" height="70" as="geometry"/>
                </mxCell>
                <mxCell id="56" value="" style="edgeStyle=entityRelationEdgeStyle;fontSize=12;html=1;endArrow=ERzeroToMany;endFill=1;startArrow=ERzeroToMany;exitX=0.5;exitY=0;exitDx=0;exitDy=0;entryX=0.008;entryY=0.664;entryDx=0;entryDy=0;entryPerimeter=0;" edge="1" parent="1" source="12" target="54">
                    <mxGeometry width="100" height="100" relative="1" as="geometry">
                        <mxPoint x="90" y="320" as="sourcePoint"/>
                        <mxPoint x="190" y="220" as="targetPoint"/>
                    </mxGeometry>
                </mxCell>
                <mxCell id="57" value="has" style="shape=rhombus;perimeter=rhombusPerimeter;whiteSpace=wrap;html=1;align=center;fontSize=17;gradientColor=#ffd966;fillColor=#fff2cc;strokeColor=#d6b656;fontColor=#1A1A1A;rotation=-30;" vertex="1" parent="1">
                    <mxGeometry x="230" y="120" width="120" height="60" as="geometry"/>
                </mxCell>
                <mxCell id="58" value="&lt;font color=&quot;#000000&quot;&gt;publisherName&lt;/font&gt;" style="ellipse;whiteSpace=wrap;html=1;align=center;fillColor=#e6d0de;strokeColor=#996185;gradientColor=#d5739d;fontColor=#333333;" vertex="1" parent="1">
                    <mxGeometry x="580" y="5" width="100" height="40" as="geometry"/>
                </mxCell>
                <mxCell id="59" value="&lt;font color=&quot;#000000&quot;&gt;publisherId&lt;/font&gt;" style="ellipse;whiteSpace=wrap;html=1;align=center;fillColor=#e6d0de;strokeColor=#996185;gradientColor=#d5739d;fontColor=#333333;" vertex="1" parent="1">
                    <mxGeometry x="580" y="45" width="100" height="40" as="geometry"/>
                </mxCell>
                <mxCell id="60" value="&lt;font color=&quot;#000000&quot;&gt;publisherId&lt;/font&gt;" style="ellipse;whiteSpace=wrap;html=1;align=center;fillColor=#e6d0de;strokeColor=#996185;gradientColor=#d5739d;fontColor=#333333;" vertex="1" parent="1">
                    <mxGeometry x="20" y="430" width="100" height="40" as="geometry"/>
                </mxCell>
            </root>
        </mxGraphModel>
    </diagram>
</mxfile>